<?xml version="1.0" encoding="utf-8"?>
<!-- Generator: Adobe Illustrator 16.0.0, SVG Export Plug-In . SVG Version: 6.00 Build 0)  -->
<!DOCTYPE svg PUBLIC "-//W3C//DTD SVG 1.1//EN" "http://www.w3.org/Graphics/SVG/1.1/DTD/svg11.dtd">
<svg version="1.1" xmlns="http://www.w3.org/2000/svg" xmlns:xlink="http://www.w3.org/1999/xlink" x="0px" y="0px"
	 width="283.46px" height="141.73px" viewBox="0 0 283.46 141.73" enable-background="new 0 0 283.46 141.73" xml:space="preserve">
<g id="Layer_1">
	<rect fill="#21409A" width="283.46" height="141.73"/>
</g>
<g id="Layer_2">
	<g>
		<g>
			<g>
				<path fill="#FFFFFF" d="M35.896,59.778l1.408-0.002c0.106,0.141,0.182,0.243,0.228,0.307c0.425,0.614,0.751,1.018,0.979,1.208
					c0.197,0.038,1.234,0.056,3.112,0.052c1.166-0.002,2.203-0.009,3.111-0.021l0.455-0.044l2.748-0.024l5.133,0.009l7.018-0.014
					l1.34-0.155c0.196-0.116,0.408-0.423,0.634-0.924c0.061-0.115,0.144-0.275,0.249-0.48l1-0.021
					c0.151-0.001,0.378,0.006,0.681,0.017c0.017,0.873,0.027,2.188,0.03,3.946l0.025,1.688l-0.021,0.968
					c0,0.329-0.03,0.613-0.09,0.854c-0.621,0.166-1.166,0.268-1.635,0.307c-0.396-0.492-0.825-1.206-1.29-2.142
					c-0.465-0.935-0.758-1.452-0.879-1.554c-0.183-0.164-0.396-0.271-0.638-0.321c-0.365-0.063-1.974-0.092-4.827-0.086
					c-0.425,0.001-0.957,0.028-1.593,0.079c-0.075,0.493-0.112,0.898-0.112,1.215l0.027,2.542l0.01,5.578l0.079,6.014l-0.019,2.467
					c0.001,0.873,0.094,1.531,0.277,1.973c0.244,0.088,0.693,0.17,1.347,0.244c0.122,0.012,0.685,0.113,1.689,0.301
					c0.456,0.088,0.86,0.188,1.21,0.301c0.077,0.455,0.116,0.732,0.116,0.834c0,0.113-0.022,0.279-0.067,0.494
					c-0.333,0.014-0.606,0.02-0.817,0.02c-1.56,0.004-2.885-0.041-3.976-0.133c-1.09-0.094-3.066-0.137-5.927-0.133
					c-0.455,0.002-1.787,0.08-3.997,0.236c-0.863,0.053-1.423,0.078-1.681,0.08c-0.016-0.191-0.031-0.336-0.046-0.438l-0.023-0.436
					l0-0.152c0.332-0.367,0.96-0.641,1.883-0.82c1.574-0.318,2.664-0.605,3.269-0.859c0.151-0.24,0.241-0.557,0.271-0.949
					c0.103-1.518,0.152-3.934,0.146-7.246l-0.125-7.172c-0.003-1.973-0.051-3.168-0.143-3.586c-0.031-0.113-0.084-0.199-0.16-0.255
					c-0.076-0.057-0.182-0.092-0.318-0.104c-0.47-0.049-2-0.072-4.588-0.067c-1.423,0.003-2.377,0.119-2.861,0.348
					c-0.651,0.317-1.626,1.18-2.926,2.586c-0.378,0.406-0.658,0.608-0.839,0.609c-0.697-0.303-1.144-0.548-1.341-0.738
					c0.468-0.822,1.116-2.468,1.945-4.937C35.617,60.519,35.791,60.033,35.896,59.778z"/>
				<path fill="#FFFFFF" d="M66.805,84.154c0.242-0.051,0.916-0.129,2.021-0.232c0.484-0.051,0.787-0.141,0.908-0.268
					c0.151-0.189,0.226-0.637,0.225-1.346l-0.002-1.348l0.066-1.424l-0.002-1.555l0.021-0.381l-0.024-0.947l0.045-0.322l0.079-6.888
					l-0.001-0.531c-0.004-2.352-0.083-3.807-0.234-4.362c-0.091-0.328-0.308-0.588-0.649-0.776c-0.341-0.189-1.14-0.365-2.397-0.526
					l0-0.398c0-0.189,0.014-0.424,0.044-0.702l1.912-0.346c0.379-0.089,0.743-0.166,1.093-0.229c0.85-0.153,1.919-0.472,3.209-0.955
					c0.228-0.114,0.44-0.21,0.637-0.286l1.231,0.074L74.959,71.75c1.374-0.914,2.627-1.562,3.76-1.943
					c1.133-0.382,2.312-0.573,3.537-0.576c1.164-0.002,2.173,0.17,3.028,0.516c0.855,0.347,1.517,0.775,1.986,1.286
					c0.469,0.512,0.803,1.135,1.001,1.868c0.137,0.492,0.207,1.441,0.209,2.846l0.002,1.213l0.028,2.676l-0.107,3.871
					c0.061,0.113,0.129,0.189,0.205,0.227c0.182,0.063,0.628,0.15,1.34,0.264c0.409,0.063,0.727,0.117,0.955,0.168
					c0.121,0.189,0.182,0.34,0.182,0.451l-0.022,0.152c-0.03,0.137-0.045,0.344-0.044,0.621l-0.522,0.029
					c-0.228,0-0.674-0.025-1.34-0.074c-1.272-0.098-2.34-0.146-3.203-0.145c-0.561,0-1.31,0.027-2.248,0.08
					c-0.667,0.027-1.515,0.039-2.544,0.041c-0.167,0.002-0.318-0.018-0.454-0.055l-0.001-0.455l-0.046-0.248
					c0-0.1,0.037-0.24,0.113-0.416c0.348-0.141,0.752-0.232,1.215-0.277c0.461-0.045,0.896-0.094,1.305-0.145
					c0.06-0.24,0.098-0.393,0.113-0.457l0.109-2.77l-0.008-4.648c-0.002-1.377-0.095-2.311-0.278-2.797s-0.562-0.885-1.137-1.194
					c-0.576-0.308-1.273-0.462-2.091-0.46c-0.954,0.001-1.881,0.189-2.781,0.564c-0.9,0.375-1.668,0.816-2.303,1.324l0.006,3.32
					c0.003,1.82-0.013,3.188-0.048,4.098c-0.023,0.543-0.035,0.885-0.034,1.023c0.001,0.873,0.07,1.475,0.207,1.803
					c0.061,0.15,0.228,0.291,0.501,0.416c0.56,0.037,1.025,0.059,1.396,0.064s0.67,0.033,0.897,0.084
					c0.031,0.311,0.046,0.529,0.047,0.654c0,0.174-0.03,0.387-0.09,0.635l-2.526-0.08c-0.957-0.055-1.814-0.082-2.573-0.08
					l-3.186,0.139l-2.231-0.016c-0.152-0.176-0.312-0.492-0.479-0.947L66.805,84.154z"/>
				<path fill="#FFFFFF" d="M112.634,81.693l0.523,0.285c0.136,0.086,0.22,0.193,0.25,0.32l0.023,0.096
					c-0.361,1.127-0.837,1.902-1.426,2.326c-0.59,0.426-1.324,0.639-2.202,0.641c-0.893,0.002-1.662-0.203-2.306-0.613
					c-0.645-0.41-1.232-1.133-1.764-2.168c-0.649,0.963-1.565,1.689-2.745,2.178c-1.18,0.488-2.626,0.734-4.337,0.738
					c-1.575,0.004-2.734-0.27-3.477-0.818s-1.115-1.271-1.117-2.17c-0.001-0.418,0.108-0.842,0.327-1.271s0.574-0.857,1.065-1.283
					c0.491-0.424,1.282-0.891,2.371-1.398c0.166-0.076,0.741-0.293,1.725-0.648l5.652-1.908c0.044-0.482,0.066-0.969,0.065-1.461
					c-0.003-1.709-0.254-2.871-0.755-3.49c-0.303-0.38-0.833-0.568-1.591-0.566c-0.757,0.001-1.454,0.123-2.089,0.364
					c-0.635,0.242-1.097,0.553-1.383,0.933c-0.212,0.279-0.393,0.804-0.543,1.576c-0.105,0.557-0.203,0.879-0.293,0.969
					c-0.227,0.24-0.64,0.459-1.237,0.656c-0.598,0.197-1.003,0.34-1.214,0.43c-0.817,0.33-1.468,0.496-1.953,0.496
					c-0.212-0.15-0.319-0.365-0.319-0.645c-0.001-0.721,0.18-1.34,0.542-1.859c0.544-0.734,1.364-1.448,2.461-2.139
					c1.096-0.691,2.122-1.177,3.075-1.457c1.301-0.357,2.891-0.537,4.769-0.541c1.211-0.002,2.252,0.183,3.124,0.554
					c0.871,0.371,1.478,0.924,1.82,1.657c0.341,0.733,0.514,2.055,0.518,3.963l-0.041,3.131l0.05,2.295l0.001,0.59
					c0.001,0.531,0.087,0.893,0.259,1.09c0.171,0.195,0.391,0.293,0.659,0.293c0.164-0.002,0.305-0.039,0.425-0.115l0.68-0.893
					L112.634,81.693z M105.177,77.307c-0.862,0.242-1.834,0.646-2.916,1.211s-1.834,1.133-2.257,1.701
					c-0.303,0.418-0.453,0.932-0.452,1.539c0.001,0.543,0.198,0.992,0.593,1.346c0.394,0.354,0.849,0.529,1.364,0.527
					c0.848-0.002,1.567-0.205,2.157-0.609c0.801-0.547,1.27-0.98,1.406-1.303c0.136-0.324,0.202-1.238,0.199-2.742
					C105.27,78.42,105.238,77.863,105.177,77.307z"/>
				<path fill="#FFFFFF" d="M114.639,85.256l-0.048-1.232l2.566-0.289c0.378-0.09,0.639-0.221,0.783-0.391
					c0.144-0.172,0.215-0.553,0.214-1.148l0-0.209c0-0.15,0.011-0.426,0.033-0.824c0.022-0.398,0.033-0.75,0.032-1.053
					c0-0.24-0.024-0.703-0.071-1.387l0.033-0.947l-0.036-0.893l0.063-3.092c0-0.393-0.047-0.797-0.139-1.215
					c-0.168-0.189-0.474-0.352-0.916-0.49c-0.443-0.138-1.213-0.239-2.31-0.3l-0.002-1.063c1.559-0.079,2.929-0.354,4.109-0.823
					c0.802-0.306,1.671-0.844,2.609-1.617l1.522-0.003c0.063,1.568,0.097,3.604,0.102,6.109l-0.146,7.74
					c0.001,0.531,0.032,1.012,0.093,1.441c0.469,0.139,1.234,0.275,2.294,0.412c0.409,0.051,0.735,0.113,0.977,0.189l-0.043,1.043
					c-0.408,0.014-0.71,0.02-0.907,0.02c-0.227,0.002-0.574-0.01-1.042-0.035c-1.542-0.061-3.605-0.088-6.189-0.082
					c-0.74,0-1.458,0.023-2.153,0.07C115.372,85.232,114.896,85.256,114.639,85.256z M117.78,62.617
					c-0.001-0.684,0.263-1.243,0.792-1.681c0.529-0.437,1.21-0.657,2.043-0.658c0.893-0.002,1.636,0.228,2.227,0.688
					c0.592,0.461,0.888,0.983,0.889,1.564c0,0.431-0.116,0.86-0.35,1.29c-0.234,0.432-0.604,0.776-1.111,1.036
					c-0.507,0.261-1.025,0.391-1.555,0.393c-0.727,0.001-1.397-0.257-2.012-0.773C118.089,63.958,117.781,63.337,117.78,62.617z"/>
				<path fill="#FFFFFF" d="M175.371,85.139l-0.002-1.365c0.301-0.078,0.798-0.186,1.489-0.326c0.978-0.205,1.708-0.414,2.188-0.631
					c0.272-0.393,0.407-0.936,0.405-1.631l-0.026-2.24l0.039-4.324l-0.025-1.025c0.116-2.505,0.176-3.795,0.176-3.871l-0.051-2.523
					l0.067-1.024l-0.118-2.162l-0.047-0.815c-0.016-0.127-0.068-0.329-0.16-0.607c-0.621-0.239-1.628-0.389-3.021-0.449
					c-0.333-0.012-0.599-0.031-0.795-0.056l-0.049-1.669l6.495,0.215c0.802,0.023,1.302,0.035,1.498,0.035
					c0.894-0.002,2.324-0.056,4.292-0.161c1.104-0.064,1.8-0.104,2.088-0.117c0.019,0.24,0.028,0.442,0.028,0.606
					c0.001,0.216-0.018,0.494-0.053,0.835c-0.605,0.179-1.295,0.348-2.073,0.507c-0.778,0.16-1.416,0.322-1.914,0.487
					c-0.091,0.329-0.135,0.804-0.134,1.424c0.001,0.544,0.024,0.986,0.071,1.327c-0.043,2.138-0.063,3.782-0.061,4.933l0.032,5.008
					l-0.109,2.543l0.098,3.795l-0.067,0.721c0,0.102,0.046,0.246,0.138,0.436c0.918,0.162,1.754,0.275,2.507,0.338
					c0.136,0.012,0.595,0.063,1.377,0.148c0.062,0.379,0.093,0.695,0.093,0.947c0,0.141-0.007,0.355-0.021,0.646
					c-0.197,0-0.348,0.008-0.454,0.02c-0.483,0.027-0.764,0.039-0.839,0.039c-0.105,0-0.303-0.018-0.59-0.055
					c-0.211-0.025-1.217-0.113-3.016-0.26l-4.014-0.031c-0.801,0.002-1.966,0.068-3.492,0.197
					C176.323,85.08,175.674,85.125,175.371,85.139z"/>
				<path fill="#FFFFFF" d="M193.986,79.791c0.455-0.078,0.787-0.117,1-0.117c0.105,0,0.265,0.006,0.477,0.02l0.204,0.188
					c0.82,1.201,1.359,1.928,1.617,2.18c0.53,0.518,1.054,0.934,1.569,1.248c0.349,0.203,0.894,0.41,1.636,0.623
					c0.501,0.152,1.03,0.227,1.591,0.227c0.954-0.002,1.771-0.262,2.451-0.773c0.681-0.516,1.02-1.068,1.019-1.662
					c0-0.406-0.129-0.75-0.387-1.033c-0.259-0.285-0.773-0.564-1.546-0.842c-0.379-0.139-1.33-0.365-2.852-0.678
					c-1.522-0.313-2.442-0.52-2.761-0.621c-0.713-0.227-1.345-0.541-1.898-0.943c-0.554-0.404-0.975-0.859-1.263-1.365
					c-0.396-0.719-0.593-1.34-0.594-1.857c-0.001-0.961,0.163-1.748,0.495-2.363c0.332-0.614,0.801-1.155,1.405-1.625
					c0.439-0.354,1.101-0.678,1.985-0.971c0.886-0.292,1.836-0.439,2.851-0.441c1.438-0.003,2.703,0.076,3.793,0.238
					c1.09,0.163,2.015,0.407,2.771,0.735c0.092,0.291,0.222,0.96,0.391,2.01c0.168,1.05,0.253,1.669,0.253,1.859
					c0,0.088-0.022,0.184-0.067,0.285c-0.395,0.102-0.72,0.152-0.977,0.154c-0.151,0-0.371-0.014-0.659-0.037
					c-0.136-0.178-0.318-0.441-0.546-0.797c-0.729-1.123-1.477-1.916-2.242-2.376c-0.765-0.46-1.647-0.688-2.646-0.687
					c-1.045,0.002-1.922,0.257-2.633,0.764c-0.515,0.368-0.771,0.867-0.771,1.5c0.001,0.416,0.271,0.84,0.809,1.27
					c0.523,0.441,1.445,0.775,2.766,1c1.989,0.363,3.454,0.727,4.396,1.092c1.366,0.529,2.327,1.152,2.883,1.873
					c0.556,0.719,0.833,1.553,0.835,2.502c0.003,1.467-0.657,2.693-1.98,3.676s-3.257,1.477-5.801,1.48
					c-0.333,0-1.203-0.061-2.611-0.184c-0.637-0.063-1.387-0.188-2.25-0.377c-0.212-0.049-0.765-0.23-1.659-0.545
					c-0.167-0.076-0.283-0.168-0.352-0.275c-0.069-0.107-0.172-0.635-0.31-1.584C194.133,81.018,194.002,80.094,193.986,79.791z"/>
				<path fill="#FFFFFF" d="M232.306,81.461l0.523,0.285c0.137,0.086,0.22,0.193,0.25,0.32l0.022,0.096
					c-0.361,1.127-0.836,1.902-1.427,2.326c-0.589,0.426-1.322,0.639-2.2,0.641c-0.894,0.002-1.662-0.203-2.307-0.613
					c-0.644-0.41-1.232-1.133-1.763-2.168c-0.65,0.963-1.564,1.688-2.746,2.178c-1.18,0.488-2.625,0.734-4.337,0.738
					c-1.574,0.004-2.734-0.27-3.478-0.818s-1.114-1.271-1.116-2.17c0-0.418,0.108-0.842,0.327-1.271
					c0.218-0.432,0.574-0.857,1.065-1.283c0.491-0.424,1.281-0.891,2.37-1.398c0.167-0.076,0.742-0.293,1.726-0.648l5.652-1.908
					c0.044-0.482,0.066-0.969,0.065-1.461c-0.003-1.709-0.255-2.871-0.756-3.49c-0.304-0.38-0.834-0.568-1.591-0.566
					c-0.757,0.001-1.453,0.123-2.088,0.364c-0.637,0.242-1.098,0.553-1.385,0.933c-0.211,0.278-0.393,0.804-0.542,1.576
					c-0.105,0.557-0.203,0.879-0.294,0.969c-0.227,0.24-0.639,0.459-1.236,0.656c-0.599,0.197-1.003,0.34-1.215,0.43
					c-0.817,0.33-1.468,0.496-1.952,0.496c-0.213-0.15-0.318-0.365-0.319-0.645c-0.001-0.721,0.18-1.34,0.542-1.859
					c0.544-0.734,1.364-1.448,2.46-2.139c1.097-0.691,2.122-1.177,3.076-1.457c1.301-0.357,2.891-0.537,4.769-0.541
					c1.211-0.002,2.252,0.183,3.124,0.554c0.871,0.371,1.478,0.924,1.819,1.656c0.342,0.733,0.515,2.054,0.519,3.964l-0.041,3.131
					l0.051,2.295l0.001,0.588c0.001,0.531,0.086,0.895,0.258,1.092c0.171,0.195,0.391,0.293,0.659,0.293
					c0.164-0.002,0.306-0.039,0.425-0.115l0.68-0.895L232.306,81.461z M224.849,77.074c-0.862,0.242-1.836,0.646-2.917,1.211
					c-1.082,0.564-1.834,1.133-2.257,1.701c-0.302,0.418-0.452,0.932-0.451,1.539c0.001,0.543,0.198,0.992,0.593,1.344
					c0.395,0.355,0.849,0.531,1.363,0.529c0.848-0.002,1.567-0.205,2.156-0.611c0.802-0.545,1.271-0.979,1.406-1.301
					c0.136-0.324,0.203-1.238,0.2-2.742C224.941,78.188,224.909,77.631,224.849,77.074z"/>
				<path fill="#FFFFFF" d="M234.514,84.072c0.393-0.154,0.756-0.254,1.089-0.307c0.832-0.115,1.317-0.211,1.453-0.287
					c0.227-0.115,0.378-0.254,0.454-0.42c0.09-0.252,0.134-0.811,0.133-1.672l-0.003-1.652l0.021-1.35l-0.071-1.994l-0.002-1.197
					c-0.002-0.797-0.079-1.449-0.231-1.955c-0.061-0.189-0.25-0.379-0.568-0.568c-0.425-0.254-1.145-0.498-2.159-0.737l-0.024-0.911
					c0.196-0.05,0.375-0.086,0.533-0.105c0.159-0.019,0.769-0.144,1.829-0.374c0.831-0.253,1.369-0.432,1.611-0.533
					c0.075-0.038,0.195-0.096,0.362-0.172c0.182-0.127,0.386-0.253,0.613-0.381c0.453-0.267,0.997-0.729,1.633-1.388l1.226-0.079
					l-0.041,2.145c-0.03,0.216-0.045,0.387-0.045,0.514c0,0.101,0.016,0.392,0.047,0.871c1.254-0.912,2.394-1.547,3.421-1.903
					c1.344-0.471,2.621-0.708,3.831-0.71c1.421-0.003,2.668,0.29,3.742,0.877s1.779,1.267,2.112,2.039
					c0.334,0.772,0.503,2.331,0.507,4.674l-0.08,6.197c0.001,0.293,0.062,0.531,0.184,0.723c0.151,0.086,0.568,0.174,1.249,0.266
					l1.113,0.176c0.137,0.162,0.205,0.361,0.205,0.598c0.001,0.148-0.007,0.355-0.021,0.617l-4.452-0.258l-1.317,0.041l-1.045,0.002
					l-2.998,0.176l-0.772,0.002c-0.016-0.158-0.022-0.281-0.022-0.367c-0.001-0.221,0.014-0.459,0.045-0.717
					c0.211-0.037,0.74-0.102,1.588-0.191c0.228-0.025,0.478-0.07,0.75-0.135c0.303-0.102,0.477-0.203,0.521-0.307
					c0.121-0.215,0.181-0.625,0.18-1.234c-0.002-1.063-0.011-1.881-0.027-2.451l0.02-2.203c-0.005-2.672-0.212-4.336-0.62-4.996
					c-0.576-0.948-1.438-1.42-2.586-1.418c-0.846,0.002-1.721,0.184-2.627,0.547c-0.905,0.363-1.841,0.913-2.806,1.649l-0.045,0.322
					l0.048,1.195L242.425,76l0.098,3.035l-0.045,0.475c0.003,2.063,0.104,3.227,0.304,3.492c0.198,0.264,0.955,0.559,2.269,0.881
					c0.047,0.217,0.07,0.373,0.07,0.475c0,0.152-0.053,0.387-0.159,0.703c-0.471,0.014-0.865,0.02-1.184,0.021
					c-0.318,0-0.819-0.043-1.503-0.125l-2.435-0.039c-1.214,0.002-2.967,0.051-5.258,0.143c-0.061-0.123-0.091-0.254-0.091-0.391
					C234.491,84.57,234.498,84.371,234.514,84.072z"/>
			</g>
			<path fill-rule="evenodd" clip-rule="evenodd" fill="#BE1E2D" d="M265.983,91.801c-0.003-1.932-53.267-3.393-118.966-3.264
				c-65.699,0.129-118.957,1.795-118.953,3.729c0.003,1.93,53.257-1.66,118.957-1.787C212.72,90.35,265.986,93.732,265.983,91.801z"
				/>
			<path fill-rule="evenodd" clip-rule="evenodd" fill="#ED1C24" d="M107.323,31.315c-6.326,7.863-12.178,15.593-18.584,22.922
				c-3.483,3.985-6.941,9.643-14.395,4.37c14.077-12.537,25.263-27.403,32.628-44.996c4.145,8.021,7.616,15.614,11.882,22.814
				c8.57,14.472,20.494,26.566,33.646,37.66c2.12,1.791,4.831,3.27,7.56,4.084c1.467,0.438,4.882,1.555,5.821-1.518
				c0.208-0.684,0.345-1.4-1.32-2.764c-0.601-0.494-4.138-1.199-5.08,0.33c-0.717,1.164-0.95,0.686-1.436,1.059
				c-3.623-5.274-2.924-8.254,3.481-13.905c0.439,3.67,2.353,5.774,6.16,6.968c4.464,1.396,6.493,6.691,5.052,11.212
				c-1.359,4.25-4.796,6.344-10.048,5.869c-6.536-0.59-12.213-2.041-17.39-6.725c-14.629-13.24-28.239-27.004-36.391-44.572
				C108.428,33.09,107.78,32.118,107.323,31.315z"/>
		</g>
		<g>
			<path fill="#FFFFFF" d="M177.29,97.43v9.678h4.446v1.6h-6.728V97.43H177.29z"/>
			<path fill="#FFFFFF" d="M183.146,98.635c0-0.287,0.141-0.535,0.421-0.744s0.617-0.314,1.009-0.314
				c0.398,0,0.737,0.105,1.019,0.314c0.28,0.205,0.421,0.455,0.421,0.752s-0.141,0.551-0.421,0.76
				c-0.274,0.209-0.61,0.314-1.009,0.314s-0.738-0.105-1.019-0.314S183.146,98.938,183.146,98.635z M185.683,101.594v7.113h-2.203
				v-7.113H185.683z"/>
			<path fill="#FFFFFF" d="M189.658,101.594l2.468,3.994l2.458-3.994h2.478l-4.955,7.602l-4.916-7.602H189.658z"/>
			<path fill="#FFFFFF" d="M204.092,102.805l-1.821,0.725c-0.287-0.434-0.643-0.65-1.067-0.65c-0.202,0-0.375,0.049-0.519,0.148
				s-0.216,0.229-0.216,0.383c0,0.273,0.425,0.543,1.273,0.811c1.168,0.375,1.955,0.719,2.359,1.035
				c0.405,0.316,0.607,0.742,0.607,1.277c0,0.686-0.34,1.26-1.019,1.721c-0.659,0.438-1.456,0.656-2.389,0.656
				c-1.6,0-2.732-0.58-3.398-1.744l1.88-0.65c0.262,0.34,0.461,0.557,0.598,0.65c0.268,0.186,0.588,0.277,0.96,0.277
				c0.744,0,1.116-0.254,1.116-0.76c0-0.293-0.287-0.564-0.862-0.818c-0.222-0.082-0.443-0.162-0.665-0.24
				c-0.223-0.078-0.447-0.158-0.676-0.242c-0.641-0.232-1.091-0.467-1.352-0.701c-0.333-0.297-0.5-0.678-0.5-1.146
				c0-0.617,0.284-1.129,0.853-1.533c0.581-0.404,1.286-0.605,2.115-0.605C202.591,101.396,203.498,101.865,204.092,102.805z"/>
			<path fill="#FFFFFF" d="M206.688,101.594h2.203v0.656c0.425-0.33,0.787-0.555,1.087-0.672c0.32-0.121,0.722-0.182,1.204-0.182
				c1.077,0,1.93,0.35,2.557,1.051c0.691-0.701,1.628-1.051,2.81-1.051c2.148,0,3.222,0.971,3.222,2.914v4.396h-2.213v-3.951
				c0-0.682-0.11-1.164-0.333-1.447c-0.229-0.287-0.604-0.43-1.126-0.43c-0.607,0-1.049,0.17-1.327,0.512
				c-0.277,0.34-0.416,0.889-0.416,1.643v3.674h-2.213v-3.93c0-1.266-0.489-1.898-1.469-1.898c-0.62,0-1.072,0.172-1.356,0.518
				s-0.426,0.891-0.426,1.637v3.674h-2.203V101.594z"/>
			<path fill="#FFFFFF" d="M231.236,105.537h-6.835c0.059,0.584,0.313,1.049,0.764,1.395c0.45,0.342,1.028,0.512,1.733,0.512
				c0.549,0,1.002-0.098,1.361-0.293c0.353-0.193,0.754-0.555,1.204-1.08l1.86,0.773c-0.287,0.365-0.591,0.678-0.91,0.939
				c-0.32,0.26-0.663,0.475-1.028,0.643s-0.761,0.291-1.185,0.369c-0.425,0.076-0.885,0.115-1.381,0.115
				c-1.424,0-2.565-0.34-3.428-1.021c-0.861-0.688-1.292-1.598-1.292-2.732c0-1.123,0.417-2.035,1.253-2.73
				c0.842-0.688,1.959-1.029,3.349-1.029c1.404,0,2.514,0.332,3.33,1c0.81,0.662,1.214,1.58,1.214,2.754L231.236,105.537z
				 M228.975,104.193c-0.307-0.877-1.048-1.314-2.223-1.314c-0.269,0-0.52,0.029-0.754,0.092c-0.235,0.061-0.449,0.148-0.642,0.262
				c-0.193,0.115-0.357,0.252-0.495,0.412c-0.137,0.162-0.241,0.344-0.313,0.549H228.975z"/>
			<path fill="#FFFFFF" d="M240.677,96.371h2.213v12.336h-2.213v-0.746c-0.869,0.633-1.852,0.949-2.948,0.949
				c-1.306,0-2.389-0.354-3.251-1.064c-0.855-0.727-1.282-1.633-1.282-2.719c0-1.061,0.427-1.947,1.282-2.658
				c0.849-0.715,1.916-1.072,3.202-1.072c1.116,0,2.115,0.34,2.997,1.021V96.371z M235.447,105.127c0,0.684,0.245,1.238,0.734,1.666
				c0.503,0.434,1.136,0.65,1.899,0.65c0.816,0,1.476-0.209,1.979-0.629c0.503-0.434,0.754-0.982,0.754-1.65
				c0-0.666-0.251-1.217-0.754-1.65c-0.503-0.424-1.155-0.635-1.959-0.635c-0.757,0-1.391,0.215-1.899,0.643
				C235.698,103.955,235.447,104.49,235.447,105.127z"/>
			<path fill="#FFFFFF" d="M254.356,105.537h-6.835c0.059,0.584,0.313,1.049,0.764,1.395c0.45,0.342,1.028,0.512,1.733,0.512
				c0.549,0,1.002-0.098,1.361-0.293c0.353-0.193,0.754-0.555,1.204-1.08l1.86,0.773c-0.287,0.365-0.591,0.678-0.91,0.939
				c-0.32,0.26-0.663,0.475-1.028,0.643s-0.761,0.291-1.185,0.369c-0.425,0.076-0.885,0.115-1.381,0.115
				c-1.424,0-2.565-0.34-3.428-1.021c-0.861-0.688-1.292-1.598-1.292-2.732c0-1.123,0.417-2.035,1.253-2.73
				c0.842-0.688,1.959-1.029,3.349-1.029c1.404,0,2.514,0.332,3.33,1c0.81,0.662,1.214,1.58,1.214,2.754L254.356,105.537z
				 M252.095,104.193c-0.307-0.877-1.048-1.314-2.223-1.314c-0.269,0-0.52,0.029-0.754,0.092c-0.235,0.061-0.449,0.148-0.642,0.262
				c-0.193,0.115-0.357,0.252-0.495,0.412c-0.137,0.162-0.241,0.344-0.313,0.549H252.095z"/>
			<path fill="#FFFFFF" d="M258.969,96.371v12.336h-2.203V96.371H258.969z"/>
		</g>
	</g>
</g>
</svg>
